<svg id="Creatively_Crafting_Clean_Modern_Web" data-name="Creatively Crafting Clean &amp; Modern Web" xmlns="http://www.w3.org/2000/svg" viewBox="0 0 117.01 116.94"><path d="M185.65,87.85a2.53,2.53,0,0,0-.87-.88,2.61,2.61,0,0,0-1.25-.41,2.69,2.69,0,0,0-1.55.32,3,3,0,0,0-1.2,1.21,4.85,4.85,0,0,0-.57,2,4.78,4.78,0,0,0,.24,2.06,3,3,0,0,0,1,1.38,2.72,2.72,0,0,0,1.49.56,2.68,2.68,0,0,0,1.3-.19,2.79,2.79,0,0,0,1-.72,2.55,2.55,0,0,0,.56-1.05l.62.05a3.44,3.44,0,0,1-.67,1.32,3.32,3.32,0,0,1-2.86,1.18A3.34,3.34,0,0,1,181,94a3.49,3.49,0,0,1-1.15-1.63,6,6,0,0,1,.37-4.56,3.68,3.68,0,0,1,1.4-1.42,3.6,3.6,0,0,1,3.5.13,3.15,3.15,0,0,1,1.05,1.1,3.63,3.63,0,0,1,.45,1.42L186,89A2.59,2.59,0,0,0,185.65,87.85Z" transform="translate(-120.09 -85.97)" fill="currentColor"/><path d="M191.21,87.21l2.57.68a3,3,0,0,1,1.28.66,2.25,2.25,0,0,1,.66,1.09,2.78,2.78,0,0,1,0,1.34,2.52,2.52,0,0,1-.79,1.32,2.18,2.18,0,0,1-1.37.52l1,4-.68-.18-.94-3.89-.39-.08-2-.53-.9,3.39-.59-.16Zm1.42,5a2.44,2.44,0,0,0,1.13,0,1.57,1.57,0,0,0,.84-.47,2,2,0,0,0,.5-.92,2.09,2.09,0,0,0,0-1,1.6,1.6,0,0,0-.51-.84,2.31,2.31,0,0,0-1-.51l-2-.52-1,3.73Z" transform="translate(-120.09 -85.97)" fill="currentColor"/><path d="M200.43,90.06l4.38,2-.23.5-3.82-1.71-1.4,3.11,3.58,1.61-.22.5-3.58-1.61-1.4,3.11,3.9,1.75-.23.52-4.45-2Z" transform="translate(-120.09 -85.97)" fill="currentColor"/><path d="M203.34,100.8l7.24-5.38.58.38L209,104.57l-.54-.36.68-2.74-3-2-2.26,1.7Zm6,.11,1.15-4.63,0,0-3.81,2.85Z" transform="translate(-120.09 -85.97)" fill="currentColor"/><path d="M216.33,99.61l4.4,4.12-.38.4-2-1.84L213,108.08l-.45-.43,5.42-5.79L216,100Z" transform="translate(-120.09 -85.97)" fill="currentColor"/><path d="M217.15,112.56l-.39-.46,6.51-5.44.39.46Z" transform="translate(-120.09 -85.97)" fill="currentColor"/><path d="M221.28,116.88l0,.05,8-1.86.35.54-8.8,2-.37-.58,5.47-7.16.35.54Z" transform="translate(-120.09 -85.97)" fill="currentColor"/><path d="M231.37,119.11l1.91,4.41-.51.22-1.66-3.85L228,121.24l1.56,3.6-.51.22-1.56-3.6-3.13,1.35,1.7,3.93-.52.22-1.94-4.49Z" transform="translate(-120.09 -85.97)" fill="currentColor"/><path d="M234.66,127.67l.16.59-7.67,2,1,4-.54.14-1.18-4.58Z" transform="translate(-120.09 -85.97)" fill="currentColor"/><path d="M236.54,136.24l-3.8,3v.06l4.29,2.23.07.71-5-2.6-3.77.35-.06-.62,3.77-.35,4.4-3.48Z" transform="translate(-120.09 -85.97)" fill="currentColor"/><path d="M234.32,156a2.67,2.67,0,0,0,1-.79,2.79,2.79,0,0,0,.51-1.21,2.75,2.75,0,0,0-.19-1.58,3.08,3.08,0,0,0-1.11-1.29,4.71,4.71,0,0,0-1.94-.73,4.76,4.76,0,0,0-2.08.06,3.14,3.14,0,0,0-1.46.87,2.76,2.76,0,0,0-.68,1.44,2.62,2.62,0,0,0,.09,1.31,2.55,2.55,0,0,0,.63,1,2.58,2.58,0,0,0,1,.65l-.1.62a3.48,3.48,0,0,1-1.26-.79,3.21,3.21,0,0,1-.82-1.29,3.47,3.47,0,0,1-.12-1.65,3.41,3.41,0,0,1,.84-1.77,3.59,3.59,0,0,1,1.72-1,6,6,0,0,1,4.52.74,3.63,3.63,0,0,1,1.3,1.52,3.55,3.55,0,0,1-.41,3.47,3.33,3.33,0,0,1-1.19,1,3.37,3.37,0,0,1-1.45.33l.1-.61A2.66,2.66,0,0,0,234.32,156Z" transform="translate(-120.09 -85.97)" fill="currentColor"/><path d="M234.5,161.62l-.89,2.5a3,3,0,0,1-.77,1.23,2.19,2.19,0,0,1-1.14.56,2.58,2.58,0,0,1-1.33-.14,2.54,2.54,0,0,1-1.25-.89,2.22,2.22,0,0,1-.41-1.42l-4.11.66.24-.66,3.95-.62c0-.12.07-.24.12-.38l.69-1.94-3.3-1.17.2-.58Zm-5.05,1a2.28,2.28,0,0,0-.15,1.12,1.65,1.65,0,0,0,.39.88,2.1,2.1,0,0,0,.88.57,2,2,0,0,0,1.05.11,1.62,1.62,0,0,0,.88-.43,2.3,2.3,0,0,0,.59-.95l.68-1.92-3.64-1.3Z" transform="translate(-120.09 -85.97)" fill="currentColor"/><path d="M223.88,165.75l5.91,6.82-.34.6-8.91-1.47.32-.56,2.78.47,1.78-3.17-1.86-2.13Zm.34,6,4.7.8,0,0-3.13-3.59Z" transform="translate(-120.09 -85.97)" fill="currentColor"/><path d="M225.71,179l-3,3.76-.43-.34,2.61-3.29L222.23,177l-2.36,3-.43-.34,2.36-3-3.1-2.48.38-.48Z" transform="translate(-120.09 -85.97)" fill="currentColor"/><path d="M220.12,185.58l-4.45,4-.37-.41,2-1.81L212,181.54l.46-.42,5.33,5.87,2-1.82Z" transform="translate(-120.09 -85.97)" fill="currentColor"/><path d="M207.16,185.34l.5-.35,4.89,6.93-.49.35Z" transform="translate(-120.09 -85.97)" fill="currentColor"/><path d="M198.59,190.26l.52-.27,8.08,4.14.05,0-3.39-6.56.54-.28,3.9,7.54-.54.28-8.07-4.15-.06,0,3.4,6.57-.53.28Z" transform="translate(-120.09 -85.97)" fill="currentColor"/><path d="M192.17,199.64a2.81,2.81,0,0,0,1.12.52,2.88,2.88,0,0,0,1.33-.07,2.68,2.68,0,0,0,1.36-.87,3.07,3.07,0,0,0,.66-1.56,5.44,5.44,0,0,0-1.11-3.85,3,3,0,0,0-1.4-1,2.73,2.73,0,0,0-1.65,0,2.82,2.82,0,0,0-1.27.74,2.47,2.47,0,0,0-.66,1.27,3.57,3.57,0,0,0,.09,1.64l2.53-.73.15.53-3.1.9-.15-.52a4,4,0,0,1-.11-1.95,3,3,0,0,1,.8-1.54,3.46,3.46,0,0,1,1.56-.9,3.34,3.34,0,0,1,2,0,3.54,3.54,0,0,1,1.66,1.11,6,6,0,0,1,1.27,4.41,3.57,3.57,0,0,1-.8,1.81,3.24,3.24,0,0,1-1.65,1,3.33,3.33,0,0,1-3.07-.58,3.6,3.6,0,0,1-.93-1.14l.61-.18A3.06,3.06,0,0,0,192.17,199.64Z" transform="translate(-120.09 -85.97)" fill="currentColor"/><path d="M176.84,201.26a2.81,2.81,0,0,0,.95.79,2.64,2.64,0,0,0,1.28.28,2.69,2.69,0,0,0,1.52-.46,3.17,3.17,0,0,0,1.08-1.32,5,5,0,0,0,.37-2.05,4.79,4.79,0,0,0-.44-2,3.05,3.05,0,0,0-1.11-1.28,2.82,2.82,0,0,0-1.54-.41,2.66,2.66,0,0,0-1.27.32,2.6,2.6,0,0,0-.93.81,2.72,2.72,0,0,0-.46,1.1h-.62a3.56,3.56,0,0,1,.54-1.38,3.43,3.43,0,0,1,1.13-1,3.55,3.55,0,0,1,3.49.1,3.73,3.73,0,0,1,1.31,1.51,5.39,5.39,0,0,1,.49,2.28,5.25,5.25,0,0,1-.42,2.3,3.58,3.58,0,0,1-1.25,1.55,3.34,3.34,0,0,1-1.88.57,3.27,3.27,0,0,1-1.61-.36,3,3,0,0,1-1.16-1,3.55,3.55,0,0,1-.59-1.37h.62A2.66,2.66,0,0,0,176.84,201.26Z" transform="translate(-120.09 -85.97)" fill="currentColor"/><path d="M171.38,202.39l-.6-.1,1.25-7.82-4.07-.65.09-.55,4.67.74Z" transform="translate(-120.09 -85.97)" fill="currentColor"/><path d="M162.71,200.66l-4.57-1.49.17-.52,4,1.29,1.06-3.24-3.74-1.21.17-.52,3.73,1.2,1.06-3.24-4.07-1.32.17-.53,4.65,1.5Z" transform="translate(-120.09 -85.97)" fill="currentColor"/><path d="M158.66,190.3l-6.61,6.13-.62-.32,1.18-8.94.57.29-.38,2.8,3.22,1.67,2.07-1.92Zm-5.94.54-.65,4.72.05,0,3.48-3.25Z" transform="translate(-120.09 -85.97)" fill="currentColor"/><path d="M145.35,181.79l.46.36-.37,9.06,0,0,4.54-5.83.48.38-5.21,6.69-.48-.36.39-9.08,0,0-4.54,5.83-.47-.37Z" transform="translate(-120.09 -85.97)" fill="currentColor"/><path d="M139.68,176a2.35,2.35,0,0,1-.11,1.21,2.26,2.26,0,0,1-.74,1,1.84,1.84,0,0,1-.74.34,2.57,2.57,0,0,1-.88,0,6.83,6.83,0,0,1-1.15-.27l-.24-.06c-.11.45-.2.8-.27,1a3.28,3.28,0,0,1-.28.66,1.76,1.76,0,0,1-.46.52,1.79,1.79,0,0,1-.89.37,1.81,1.81,0,0,1-.95-.14,2.09,2.09,0,0,1-.79-.63,2,2,0,0,1-.39-.9,1.65,1.65,0,0,1,.1-.91,1.77,1.77,0,0,1,.56-.72,1.81,1.81,0,0,1,1-.37,3.82,3.82,0,0,1,1.27.15l.75.21.83-3.38a3.85,3.85,0,0,0-1.57.57l-.34-.46a3.78,3.78,0,0,1,2-.68l.4-1.63.44.56-.27,1.08H137a2.85,2.85,0,0,1,1.16.39,3.14,3.14,0,0,1,.94.83A2.85,2.85,0,0,1,139.68,176Zm-4.88,3.55A3,3,0,0,0,135,179c.06-.21.15-.52.25-.93l-.71-.21a3.57,3.57,0,0,0-1-.15,1.33,1.33,0,0,0-.74.28,1.24,1.24,0,0,0-.38.5,1.09,1.09,0,0,0-.09.62,1.23,1.23,0,0,0,.25.6,1.16,1.16,0,0,0,.56.42,1.35,1.35,0,0,0,.69.09,1.17,1.17,0,0,0,.63-.25A1.2,1.2,0,0,0,134.8,179.58ZM139,177a1.81,1.81,0,0,0,.09-.93,2.15,2.15,0,0,0-.41-.93,2.56,2.56,0,0,0-.83-.71,2.66,2.66,0,0,0-1-.3l-.88,3.55.44.13a3.93,3.93,0,0,0,1.27.19,1.45,1.45,0,0,0,.81-.27A1.67,1.67,0,0,0,139,177Z" transform="translate(-120.09 -85.97)" fill="currentColor"/><path d="M125.44,168.9l5.89-5.78,0-.05-8.24-.17-.26-.63,7.89-3.13.21.53-6.61,2.63,0,0,7.72.16.21.53-5.51,5.41,0,0,6.61-2.62.22.54-7.89,3.13Z" transform="translate(-120.09 -85.97)" fill="currentColor"/><path d="M126.87,149.9a3.57,3.57,0,0,1,1.72,1,3.34,3.34,0,0,1,.84,1.76,3.29,3.29,0,0,1-.22,2,3.61,3.61,0,0,1-1.3,1.51,5.38,5.38,0,0,1-2.18.84,5.31,5.31,0,0,1-2.33-.08,3.59,3.59,0,0,1-1.72-1,3.49,3.49,0,0,1-.62-3.7,3.58,3.58,0,0,1,1.29-1.51,6,6,0,0,1,4.52-.76Zm-4.15,1.23a3,3,0,0,0-1.12,1.27,2.66,2.66,0,0,0-.2,1.61,2.82,2.82,0,0,0,.71,1.47,3.05,3.05,0,0,0,1.48.84,5.39,5.39,0,0,0,4-.66,3,3,0,0,0,1.12-1.28,2.92,2.92,0,0,0-.52-3.09,3,3,0,0,0-1.47-.83,4.78,4.78,0,0,0-2,0A4.72,4.72,0,0,0,122.72,151.13Z" transform="translate(-120.09 -85.97)" fill="currentColor"/><path d="M128.57,146.16l-8.48-.19.06-2.58a3.92,3.92,0,0,1,.55-2,3.31,3.31,0,0,1,1.48-1.28,5.18,5.18,0,0,1,2.27-.4,5.11,5.11,0,0,1,2.28.53,3.3,3.3,0,0,1,1.44,1.4,4.31,4.31,0,0,1,.45,2.16Zm-.51-2.39a3.7,3.7,0,0,0-.39-1.88,2.88,2.88,0,0,0-1.25-1.19,4.74,4.74,0,0,0-2-.44,4.84,4.84,0,0,0-2,.34,2.78,2.78,0,0,0-1.28,1.08,3.28,3.28,0,0,0-.48,1.76l0,1.93,7.37.17Z" transform="translate(-120.09 -85.97)" fill="currentColor"/><path d="M120.81,135.19l.93-4.72.54.11-.81,4.12,3.34.66.76-3.85.54.1-.76,3.85,3.35.66.83-4.19.55.11-1,4.79Z" transform="translate(-120.09 -85.97)" fill="currentColor"/><path d="M123,126.22l.93-2.5a3,3,0,0,1,.79-1.21,2.25,2.25,0,0,1,1.14-.55,2.6,2.6,0,0,1,1.33.17,2.5,2.5,0,0,1,1.24.91,2.23,2.23,0,0,1,.39,1.42l4.11-.59-.24.66-4,.55a3.16,3.16,0,0,1-.12.37l-.72,1.94,3.28,1.22-.21.57Zm5.07-.94a2.36,2.36,0,0,0,.16-1.11,1.59,1.59,0,0,0-.38-.89,2,2,0,0,0-.87-.58,2.15,2.15,0,0,0-1-.14,1.68,1.68,0,0,0-.89.42,2.44,2.44,0,0,0-.61,1l-.71,1.91,3.62,1.35Z" transform="translate(-120.09 -85.97)" fill="currentColor"/><path d="M137.38,115.9l-.3.5-9.05.73,0,.05,6.33,3.79-.31.53-7.28-4.36.31-.52,9-.72,0-.05-6.34-3.8.31-.51Z" transform="translate(-120.09 -85.97)" fill="currentColor"/><path d="M135.6,104.42l.47-.42,6.57,4.23,0,0-3.58-6.94.53-.48,6.55,4.25,0,0-3.56-7,.46-.41,4,7.84-.52.47-6.51-4.19,0,0,3.51,6.91-.51.46Z" transform="translate(-120.09 -85.97)" fill="currentColor"/><path d="M146.6,95.36l4.12-2.47.29.47-3.6,2.16,1.76,2.92,3.36-2,.29.48-3.37,2,1.76,2.92,3.66-2.2.29.48L151,102.64Z" transform="translate(-120.09 -85.97)" fill="currentColor"/><path d="M154.72,90.92l2.6-1a3,3,0,0,1,1.33-.24,1.89,1.89,0,0,1,1,.42,2.33,2.33,0,0,1,.68,1,2.07,2.07,0,0,1,.13,1.3,1.62,1.62,0,0,1-.66,1l0,0a1.74,1.74,0,0,1,.88,0,2,2,0,0,1,.84.47,2.43,2.43,0,0,1,.61.92,2.19,2.19,0,0,1,.15,1.17,1.93,1.93,0,0,1-.51,1,3.23,3.23,0,0,1-1.2.77l-2.79,1.11Zm4.92,2a1.53,1.53,0,0,0,.32-.79,1.82,1.82,0,0,0-.13-.88,1.73,1.73,0,0,0-.52-.73,1.45,1.45,0,0,0-.79-.31,2.36,2.36,0,0,0-1,.18l-2,.8,1.23,3.12,2.17-.86A1.68,1.68,0,0,0,159.64,92.93Zm1.69,3.66a1.42,1.42,0,0,0,.41-.78,1.64,1.64,0,0,0-.11-.89,1.74,1.74,0,0,0-1.45-1.12,2,2,0,0,0-1,.15l-2.25.88,1.28,3.23,2.22-.88A2.36,2.36,0,0,0,161.33,96.59Z" transform="translate(-120.09 -85.97)" fill="currentColor"/></svg>